<svg width="48" height="48" viewBox="0 0 48 48" fill="none" xmlns="http://www.w3.org/2000/svg">
<g clip-path="url(#clip0_17_84)">
<mask id="mask0_17_84" style="mask-type:luminance" maskUnits="userSpaceOnUse" x="0" y="0" width="48" height="48">
<path d="M24 48C37.2548 48 48 37.2548 48 24C48 10.7452 37.2548 0 24 0C10.7452 0 0 10.7452 0 24C0 37.2548 10.7452 48 24 48Z" fill="white"/>
</mask>
<g mask="url(#mask0_17_84)">
<path d="M24 48C37.2548 48 48 37.2548 48 24C48 10.7452 37.2548 0 24 0C10.7452 0 0 10.7452 0 24C0 37.2548 10.7452 48 24 48Z" fill="white"/>
<path d="M39.8688 42.0053L18.4379 14.4H14.4V33.592H17.6303V18.5023L37.3331 43.9587C38.2221 43.3637 39.0691 42.7107 39.8688 42.0053Z" fill="url(#paint0_linear_17_84)"/>
<path d="M33.8667 14.4H30.6667V33.6H33.8667V14.4Z" fill="url(#paint1_linear_17_84)"/>
</g>
</g>
<defs>
<linearGradient id="paint0_linear_17_84" x1="1431.29" y1="1681.07" x2="2281.82" y2="2735.23" gradientUnits="userSpaceOnUse">
<stop/>
<stop offset="1" stop-opacity="0"/>
</linearGradient>
<linearGradient id="paint1_linear_17_84" x1="190.667" y1="14.4" x2="185.307" y2="1424.38" gradientUnits="userSpaceOnUse">
<stop/>
<stop offset="1" stop-opacity="0"/>
</linearGradient>
<clipPath id="clip0_17_84">
<rect width="48" height="48" fill="white"/>
</clipPath>
</defs>
</svg>
