<svg width="48" height="48" viewBox="0 0 48 48" fill="none" xmlns="http://www.w3.org/2000/svg">
<g clip-path="url(#clip0_17_93)">
<path d="M24 47.9109C23.2547 47.9109 22.559 47.7349 21.913 47.4268L15.3043 43.9495C14.3106 43.4654 14.8075 43.2893 15.1056 43.2013C16.4472 42.8051 16.6957 42.7171 18.087 42.0129C18.236 41.9248 18.4348 41.9688 18.5839 42.0569L23.6522 44.7418C23.8509 44.8298 24.0994 44.8298 24.2484 44.7418L44.0745 34.5742C44.2733 34.4862 44.3727 34.3101 44.3727 34.0901V13.7989C44.3727 13.5788 44.2733 13.4027 44.0745 13.3147L24.2484 3.19113C24.0497 3.1031 23.8012 3.1031 23.6522 3.19113L3.82609 13.3147C3.62733 13.4027 3.52795 13.6228 3.52795 13.7989V34.0901C3.52795 34.2661 3.62733 34.4862 3.82609 34.5742L9.24224 37.3472C12.1739 38.6677 14.0124 37.1271 14.0124 35.5866V15.5595C14.0124 15.2954 14.2609 15.0313 14.6087 15.0313H17.1429C17.441 15.0313 17.7391 15.2514 17.7391 15.5595V35.5866C17.7391 39.0638 15.6025 41.0885 11.8758 41.0885C10.7329 41.0885 9.83851 41.0885 7.30435 39.9881L2.08696 37.3472C0.795031 36.687 0 35.4545 0 34.1341V13.8429C0 12.5224 0.795031 11.29 2.08696 10.6298L21.913 0.462163C23.1553 -0.154054 24.8447 -0.154054 26.087 0.462163L45.913 10.6298C47.205 11.29 48 12.5224 48 13.8429V34.1341C48 35.4545 47.205 36.687 45.913 37.3472L26.087 47.5148C25.441 47.7789 24.6957 47.9109 24 47.9109ZM30.1118 33.958C21.4161 33.958 19.6273 30.4368 19.6273 27.4437C19.6273 27.1796 19.8758 26.9155 20.2236 26.9155H22.8075C23.1056 26.9155 23.354 27.0916 23.354 27.3557C23.7516 29.6885 24.8944 30.8329 30.1615 30.8329C34.3354 30.8329 36.1242 29.9966 36.1242 28.0159C36.1242 26.8715 35.6273 26.0352 29.118 25.463C23.7019 24.9788 20.323 23.9225 20.323 20.0931C20.323 16.5278 23.7019 14.4151 29.3665 14.4151C35.7267 14.4151 38.8571 16.3518 39.2547 20.5773C39.2547 20.7093 39.205 20.8414 39.1056 20.9734C39.0062 21.0614 38.8571 21.1495 38.7081 21.1495H36.1242C35.8758 21.1495 35.6273 20.9734 35.5776 20.7533C34.9814 18.3325 33.441 17.5402 29.3665 17.5402C24.795 17.5402 24.2484 18.9487 24.2484 20.0051C24.2484 21.2815 24.8944 21.6777 31.0559 22.3819C37.1677 23.0862 40.0497 24.0985 40.0497 27.8839C40 31.7572 36.4224 33.958 30.1118 33.958Z" fill="white"/>
</g>
<defs>
<clipPath id="clip0_17_93">
<rect width="48" height="48" fill="white"/>
</clipPath>
</defs>
</svg>
