<svg width="48" height="48" viewBox="0 0 48 48" fill="none" xmlns="http://www.w3.org/2000/svg">
<path d="M24 29.0974C26.5247 29.0974 28.5716 26.8499 28.5716 24.0776C28.5716 21.3054 26.5243 19.0579 24 19.0579C21.4757 19.0579 19.4289 21.3054 19.4289 24.0776C19.4289 26.8499 21.4749 29.0974 24 29.0974Z" fill="white"/>
<path d="M24.009 35.3718C36.6375 35.3718 46.875 30.3153 46.875 24.0777C46.875 17.84 36.6375 12.7835 24.009 12.7835C11.3805 12.7835 1.14258 17.84 1.14258 24.0777C1.14258 30.3153 11.3805 35.3718 24.009 35.3718Z" stroke="white"/>
<path d="M15.0976 29.7247C21.4121 41.729 30.5203 48.9318 35.4418 45.8132C40.3637 42.6941 39.2344 30.4344 32.9199 18.4306C26.6059 6.42589 17.4973 -0.776932 12.5762 2.34213C7.65429 5.46071 8.78359 17.7205 15.0976 29.7247Z" stroke="white"/>
<path d="M15.0976 18.4306C8.78358 30.4349 7.65471 42.6942 12.5758 45.8132C17.4977 48.9318 26.6059 41.7285 32.9199 29.7247C39.2344 17.72 40.3637 5.46122 35.4422 2.34216C30.5203 -0.776901 21.4121 6.42639 15.0976 18.4306Z" stroke="white"/>
</svg>
