<svg width="48" height="48" viewBox="0 0 48 48" fill="none" xmlns="http://www.w3.org/2000/svg">
<g clip-path="url(#clip0_15_78)">
<path d="M41.9575 9.42579C41.9199 9.18565 41.6801 9.05292 41.4819 9.03834C41.2841 9.02376 37.0976 8.75178 37.0976 8.75178C37.0976 8.75178 34.19 6.22107 33.871 5.94104C33.5516 5.661 32.928 5.74616 32.6861 5.80869C32.6502 5.8179 32.0507 5.98016 31.0588 6.24908C30.0874 3.79893 28.3735 1.54712 25.3578 1.54712C25.2747 1.54712 25.1889 1.55019 25.1032 1.55441C24.2455 0.560078 23.1831 0.128128 22.2656 0.128128C15.241 0.128128 11.8849 7.82688 10.8326 11.7394C8.10307 12.4809 6.16381 13.008 5.91615 13.0763C4.39256 13.4952 4.34443 13.5374 4.14447 14.796C3.99351 15.7489 0.00689697 42.7784 0.00689697 42.7784L31.0715 47.8812L47.9035 44.6888C47.9035 44.6888 41.9947 9.66593 41.9575 9.42579ZM29.3418 6.71479C28.5616 6.92654 27.6747 7.16707 26.7134 7.42792C26.7143 7.26566 26.7151 7.10569 26.7151 6.93114C26.7151 5.4082 26.474 4.18216 26.0872 3.21009C27.641 3.38118 28.6758 4.93098 29.3418 6.71479ZM24.1598 3.51199C24.5917 4.46105 24.8726 5.82288 24.8726 7.66078C24.8726 7.75476 24.8717 7.84069 24.8708 7.92777C23.1613 8.39195 21.3038 8.89602 19.442 9.40162C20.4873 5.8647 22.4467 4.15646 24.1598 3.51199ZM22.0726 1.77997C22.3758 1.77997 22.6813 1.87012 22.9735 2.04658C20.7223 2.97531 18.3092 5.31459 17.2901 9.98586C15.8006 10.3902 14.3449 10.7853 12.9989 11.1509C14.1926 7.58789 17.0271 1.77997 22.0726 1.77997Z" fill="white"/>
<path d="M41.4819 9.03834C41.2841 9.02376 37.0976 8.75178 37.0976 8.75178C37.0976 8.75178 34.19 6.22107 33.871 5.94104C33.7515 5.83669 33.5905 5.78337 33.4221 5.76035L31.0732 47.8808L47.9036 44.6888C47.9036 44.6888 41.9947 9.66593 41.9575 9.42579C41.9199 9.18565 41.6801 9.05292 41.4819 9.03834Z" fill="#E7EDE3"/>
<path d="M25.3578 17.1921L23.2824 22.6045C23.2824 22.6045 21.4639 21.7536 19.235 21.7536C15.9673 21.7536 15.8028 23.5516 15.8028 24.0047C15.8028 26.4767 23.1529 27.4238 23.1529 33.2141C23.1529 37.7695 19.8572 40.703 15.4134 40.703C10.0808 40.703 7.35394 37.7933 7.35394 37.7933L8.7817 33.6576C8.7817 33.6576 11.5847 35.7674 13.9502 35.7674C15.4956 35.7674 16.1244 34.7006 16.1244 33.9211C16.1244 30.6964 10.0944 30.5526 10.0944 25.2541C10.0944 20.7946 13.7454 16.4789 21.1152 16.4789C23.955 16.4789 25.3578 17.1921 25.3578 17.1921Z" fill="black"/>
</g>
<defs>
<clipPath id="clip0_15_78">
<rect width="48" height="48" fill="white"/>
</clipPath>
</defs>
</svg>
