<svg width="62" height="48" viewBox="0 0 62 48" fill="none" xmlns="http://www.w3.org/2000/svg">
<g clip-path="url(#clip0_14_39)">
<path d="M31 0C22.7333 0 17.5667 5.31948 15.5 15.9584C18.6 10.639 22.2167 8.64416 26.35 9.97403C28.7083 10.7328 30.3939 12.9346 32.2596 15.372C35.299 19.3424 38.8167 23.9377 46.5 23.9377C54.7667 23.9377 59.9333 18.6182 62 7.97922C58.9 13.2987 55.2833 15.2935 51.15 13.9636C48.7917 13.2049 47.1061 11.0031 45.2404 8.56569C42.201 4.59529 38.6833 0 31 0ZM15.5 23.9377C7.23333 23.9377 2.06667 29.2571 0 39.8961C3.1 34.5766 6.71667 32.5818 10.85 33.9117C13.2083 34.6705 14.8939 36.8723 16.7596 39.3096C19.799 43.28 23.3167 47.8753 31 47.8753C39.2667 47.8753 44.4333 42.5558 46.5 31.9169C43.4 37.2364 39.7833 39.2312 35.65 37.9013C33.2917 37.1425 31.6061 34.9407 29.7404 32.5034C26.701 28.533 23.1833 23.9377 15.5 23.9377Z" fill="white"/>
</g>
<defs>
<clipPath id="clip0_14_39">
<rect width="62" height="48" fill="white"/>
</clipPath>
</defs>
</svg>
