<svg width="48" height="48" viewBox="0 0 48 48" fill="none" xmlns="http://www.w3.org/2000/svg">
<path fill-rule="evenodd" clip-rule="evenodd" d="M44 8.88889C44 3.98293 40.6809 0 36.5926 0H11.4074C7.31911 0 4 3.98293 4 8.88889V39.1111C4 44.0171 7.31911 48 11.4074 48H36.5926C40.6809 48 44 44.0171 44 39.1111V8.88889Z" fill="white"/>
<path fill-rule="evenodd" clip-rule="evenodd" d="M28.6258 38.7671V43.5934C29.3025 43.9988 30.1296 44.2981 31.0487 44.5007C31.9677 44.7035 32.9703 44.8 33.9728 44.8C34.9754 44.8 35.8944 44.6938 36.8135 44.4718C37.7324 44.2498 38.4844 43.883 39.1527 43.41C39.8295 42.8984 40.4059 42.2517 40.7402 41.383C41.0743 40.5142 41.3333 39.5489 41.3333 38.2941C41.3333 37.4157 41.2164 36.6531 40.9908 35.9775C40.7652 35.3017 40.4393 34.7226 39.9883 34.2399C39.5621 33.7285 39.0692 33.2747 38.4844 32.8887C37.8995 32.5025 37.2311 32.097 36.4792 31.7304C35.9279 31.4698 35.4766 31.2188 34.9754 30.9679C34.541 30.7167 34.165 30.4658 33.8893 30.2148C33.5801 29.9542 33.3462 29.684 33.1791 29.4041C33.0121 29.1145 32.9285 28.7959 32.9285 28.4388C32.9285 28.1106 33.0029 27.8113 33.1541 27.5411C33.3052 27.2708 33.5134 27.0487 33.7807 26.8558C34.0481 26.6627 34.3822 26.5179 34.7832 26.4117C35.1759 26.3056 35.6104 26.2573 36.12 26.2573C36.471 26.2573 36.8385 26.2873 37.2061 26.348C37.5904 26.4088 37.983 26.5025 38.3758 26.6279C38.7685 26.7535 39.1527 26.9078 39.5455 27.1009C39.913 27.294 40.2555 27.516 40.548 27.767V23.2303C39.913 22.9502 39.2112 22.7379 38.4593 22.6028C37.7073 22.4677 36.8719 22.4 35.8694 22.4C34.8669 22.4 33.9478 22.5256 33.0287 22.7668C32.1097 23.0083 31.3578 23.3943 30.6894 23.9253C30.0127 24.4464 29.5198 25.0836 29.1021 25.9523C28.7093 26.763 28.5171 27.6897 28.5171 28.848C28.5171 30.2959 28.8765 31.5508 29.6033 32.516C30.3218 33.5779 31.4413 34.3501 32.8616 35.1222C33.4381 35.3925 33.9478 35.6629 34.4491 35.9234C34.9503 36.184 35.3681 36.4544 35.7023 36.7342C36.0616 37.0141 36.3456 37.3231 36.5377 37.6513C36.7466 37.9795 36.8551 38.3655 36.8551 38.8096C36.8551 39.1184 36.79 39.4079 36.663 39.6783C36.5361 39.9486 36.3372 40.1802 36.0698 40.3733C35.8025 40.5664 35.4766 40.7207 35.0673 40.8366C34.6747 40.9427 34.2319 41.0008 33.6469 41.0008C32.728 41.0008 31.809 40.8174 30.9734 40.4505C30.0545 40.0837 29.219 39.5335 28.4671 38.8096L28.6258 38.7671ZM21.6078 26.8944H26.9549V22.9369H12V26.8944H17.347V44.5587H21.6078V26.8944Z" fill="black"/>
</svg>
