<svg width="48" height="48" viewBox="0 0 48 48" fill="none" xmlns="http://www.w3.org/2000/svg">
<path d="M47.8412 2.45235L25.2932 47.3022C24.8276 48.2282 23.6316 48.2336 23.159 47.3122L0.163956 2.45667C-0.350834 1.45249 0.421116 0.236154 1.44411 0.439547L24.0162 4.9275C24.1602 4.95613 24.3077 4.95585 24.4516 4.92667L46.5518 0.445981C47.5713 0.239275 48.3469 1.44619 47.8412 2.45235Z" fill="white"/>
<path d="M34.7686 0.0131614L18.0824 3.65011C17.8081 3.70988 17.6051 3.96842 17.5885 4.27868L16.5621 23.5621C16.5379 24.0162 16.9129 24.3688 17.3114 24.2665L21.9571 23.0739C22.3918 22.9624 22.7845 23.3883 22.6952 23.8745L21.315 31.3926C21.2221 31.8986 21.6492 32.3312 22.0934 32.1811L24.9628 31.2114C25.4076 31.0612 25.835 31.4951 25.7409 32.0015L23.5475 43.8107C23.4103 44.5494 24.2936 44.9522 24.6619 44.3189L24.908 43.8959L38.5048 13.7123C38.7325 13.2069 38.3399 12.6307 37.8409 12.7378L33.0589 13.7644C32.6096 13.8608 32.2272 13.3953 32.3541 12.9062L35.4752 0.870912C35.6021 0.381036 35.2184 -0.0848778 34.7686 0.0131614Z" fill="#F3F3F3"/>
</svg>
