<svg width="48" height="48" viewBox="0 0 48 48" fill="none" xmlns="http://www.w3.org/2000/svg">
<path d="M3.41136 23.9994C3.41136 32.1489 8.14723 39.1916 15.0146 42.529L5.19383 15.6204C4.05148 18.1809 3.41136 21.0146 3.41136 23.9994ZM37.8979 22.9605C37.8979 20.416 36.984 18.6538 36.2001 17.2822C35.1565 15.5863 34.1783 14.1501 34.1783 12.4542C34.1783 10.5615 35.6136 8.79978 37.6355 8.79978C37.7267 8.79978 37.8133 8.81115 37.9022 8.81624C34.2394 5.4604 29.3593 3.41147 23.9994 3.41147C16.8069 3.41147 10.4789 7.10188 6.79765 12.6916C7.28068 12.7061 7.73589 12.7162 8.12255 12.7162C10.276 12.7162 13.6094 12.4549 13.6094 12.4549C14.7192 12.3895 14.8501 14.0196 13.7414 14.1509C13.7414 14.1509 12.6261 14.2821 11.385 14.3472L18.8824 36.6483L23.3879 23.1352L20.1802 14.3464C19.0716 14.2813 18.0213 14.1501 18.0213 14.1501C16.9119 14.0851 17.0419 12.3887 18.1514 12.4542C18.1514 12.4542 21.5514 12.7155 23.5744 12.7155C25.7274 12.7155 29.0612 12.4542 29.0612 12.4542C30.1718 12.3887 30.3023 14.0189 29.1932 14.1501C29.1932 14.1501 28.0756 14.2813 26.8369 14.3464L34.277 36.4786L36.3305 29.6161C37.2206 26.7684 37.8979 24.723 37.8979 22.9605ZM24.3606 25.8003L18.1835 43.7505C20.0278 44.2927 21.9784 44.5893 23.9994 44.5893C26.3969 44.5893 28.6961 44.1748 30.8362 43.4222C30.781 43.3341 30.7309 43.2405 30.6897 43.1386L24.3606 25.8003ZM42.0646 14.1215C42.1531 14.7773 42.2033 15.4813 42.2033 16.2386C42.2033 18.3279 41.8131 20.6765 40.6378 23.6131L34.3491 41.796C40.4698 38.2267 44.5867 31.5953 44.5867 23.9998C44.5871 20.4203 43.6727 17.0542 42.0646 14.1215ZM23.9994 0C10.7665 0 0 10.766 0 23.9994C0 37.2343 10.7665 48 23.9994 48C37.232 48 48 37.2343 48 23.9994C47.9996 10.766 37.232 0 23.9994 0ZM23.9994 46.8999C11.3733 46.8999 1.10043 36.6267 1.10043 23.9994C1.10043 11.3729 11.3729 1.10046 23.9994 1.10046C36.6251 1.10046 46.8972 11.3729 46.8972 23.9994C46.8972 36.6267 36.6251 46.8999 23.9994 46.8999Z" fill="white"/>
</svg>
