<svg width="1200" height="260" viewBox="0 0 1200 260" fill="none" xmlns="http://www.w3.org/2000/svg">
<path d="M736.711 205.908C729.572 205.908 722.933 205.908 716.007 205.908C716.007 155.56 716.007 105.506 716.007 55.1109C717.145 55.0376 718.257 54.9037 719.37 54.9032C747.696 54.8931 776.023 54.8344 804.35 54.9304C814.979 54.9664 824.986 57.135 833.979 63.444C854.345 77.7323 854.391 113.44 828.037 124.473C827.435 124.725 826.839 124.992 826.179 125.278C830.669 127.343 835.272 129.017 839.432 131.448C857.782 142.174 859.803 168.774 849.394 185.364C842.133 196.935 831.297 202.194 818.032 203.98C791.139 207.602 764.145 205.124 736.711 205.908ZM806.44 151.067C803.594 148.972 800.927 145.423 797.868 145.044C786.63 143.651 775.261 143.31 763.95 142.574C763.95 153.508 763.95 163.079 763.95 172.847C772.888 172.847 781.539 173.217 790.147 172.763C804.404 172.012 810.777 163.701 806.44 151.067ZM783.966 113.895C786.59 113.566 789.248 113.402 791.832 112.875C798.604 111.493 802.009 106.951 801.964 99.6397C801.921 92.7914 798.397 87.7749 791.739 87.0713C782.581 86.1033 773.322 86.0821 763.917 85.6464C763.917 95.5317 763.917 104.554 763.917 113.898C770.463 113.898 776.74 113.898 783.966 113.895Z" fill="url(#paint0_linear_37_3)"/>
<path d="M994.711 205.909C986.24 205.909 978.27 205.909 970.011 205.909C970.011 155.563 970.011 105.514 970.011 55.1304C971.305 55.0504 972.582 54.9032 973.858 54.9027C1000.68 54.8926 1027.51 54.7427 1054.33 55.0057C1061.59 55.0769 1068.98 55.7929 1076.08 57.2799C1093.52 60.9278 1104.05 73.6584 1105.89 91.875C1107.67 109.501 1101.93 123.654 1086.75 133.227C1082.35 136.003 1077.18 137.554 1072.33 139.68C1084.65 143.303 1091.31 153.25 1097.09 163.859C1103.81 176.229 1110.09 188.845 1116.54 201.364C1117.21 202.652 1117.73 204.012 1118.57 205.909C1103.6 205.909 1089.15 205.427 1074.76 206.11C1067.46 206.456 1063.67 204.271 1060.45 197.633C1053.65 183.626 1045.76 170.146 1038.31 156.451C1033.94 148.402 1027.38 144.278 1017.53 145.052C1017.53 165.224 1017.53 185.29 1017.53 205.909C1009.76 205.909 1002.49 205.909 994.711 205.909ZM1028.2 115.898C1034.79 115.213 1041.45 114.928 1047.94 113.733C1054.74 112.481 1058.75 106.856 1058.71 100.041C1058.67 93.5718 1055.1 88.2735 1048.31 87.4012C1038.19 86.1 1027.91 86.0022 1017.66 85.3902C1017.66 96.1879 1017.66 105.805 1017.66 115.898C1020.97 115.898 1024.09 115.898 1028.2 115.898Z" fill="url(#paint1_linear_37_3)"/>
<path d="M92.7255 205.908C88.585 205.908 84.9413 205.908 81 205.908C81 155.592 81 105.528 81 55.1785C122.394 55.1785 163.793 55.1785 205.474 55.1785C205.474 65.9413 205.474 76.668 205.474 87.7377C179.742 87.7377 154.137 87.7377 128.184 87.7377C128.184 95.4621 128.184 102.858 128.184 110.763C152.007 110.763 175.907 110.763 200.112 110.763C200.112 121.344 200.112 131.426 200.112 142.178C176.184 142.178 152.309 142.178 128.139 142.178C128.139 152.055 128.139 161.267 128.139 170.947C154.685 170.947 181.095 170.947 207.845 170.947C207.845 182.661 207.845 193.92 207.845 205.908C169.713 205.908 131.467 205.908 92.7255 205.908Z" fill="url(#paint2_linear_37_3)"/>
<path d="M298.243 104.391C313.635 107.964 328.634 111.311 342.441 118.573C372.156 134.203 371.058 171.06 351.791 190.741C342.068 200.675 329.919 205.435 316.446 207.292C298.128 209.817 279.918 209.345 262.197 203.73C242.672 197.544 228.243 176.531 228.841 155.426C236.158 154.928 243.547 154.389 250.94 153.932C258.24 153.481 265.545 153.112 271.428 152.786C275.221 159.648 277.723 166.413 282.111 171.577C288.459 179.047 303.292 180.272 311.7 175.278C316.256 172.572 319.482 168.627 319.487 163.267C319.492 157.695 316.419 153.039 311.29 151.156C302.479 147.92 293.228 145.898 284.358 142.802C274.236 139.27 263.896 135.955 254.432 131.04C240.866 123.996 233.562 112.012 233.925 96.5522C234.302 80.5443 241.939 68.4271 256.147 60.7068C271.683 52.2646 288.619 51.7896 305.618 52.5914C312.68 52.9245 319.803 54.1818 326.678 55.9011C345.39 60.5809 355.841 73.1958 359.64 91.7544C360.004 93.5337 360.29 95.3289 360.752 97.8887C345.961 98.788 331.295 99.6797 316.393 100.586C315.926 99.3011 315.343 98.1293 315.074 96.8893C311.81 81.8384 296.825 79.1571 285.989 82.3876C281.334 83.775 278.09 87.1153 277.875 92.0383C277.664 96.867 281.322 99.426 285.436 100.837C289.488 102.227 293.712 103.113 298.243 104.391Z" fill="url(#paint3_linear_37_3)"/>
<path d="M419.973 57.0406C441.758 50.6795 463.351 50.2113 484.728 56.3652C502.333 61.433 512.182 74.0802 515.653 91.8723C516 93.654 516.306 95.444 516.753 97.9014C501.916 98.7983 487.223 99.6865 472.316 100.588C471.905 99.3688 471.446 98.3288 471.206 97.2406C467.831 81.9691 453.541 79.2965 442.332 82.2404C437.527 83.5024 433.602 88.1248 433.797 92.156C434.031 96.9934 437.383 99.6855 441.559 100.854C453.015 104.058 464.657 106.614 476.06 109.987C483.324 112.136 490.577 114.713 497.346 118.083C526.881 132.786 526.961 166.689 511.199 186.83C502.471 197.983 490.647 204.079 477.065 206.538C457.362 210.104 437.629 209.81 418.382 203.782C398.662 197.606 383.338 175.178 384.987 155.339C399.657 154.448 414.383 153.554 429.273 152.65C430.68 160.136 432.396 166.918 438.097 172.007C445.439 178.562 459.627 180.192 467.953 175.094C478.084 168.891 478.182 156.209 467.405 151.318C458.915 147.465 449.401 145.939 440.539 142.817C430.119 139.146 419.161 136.144 409.755 130.611C382.28 114.448 383.547 76.4135 411.52 60.9428C414.117 59.5065 416.898 58.4043 419.973 57.0406Z" fill="url(#paint4_linear_37_3)"/>
<path d="M578.025 85.2437C581.502 76.0639 584.871 67.2582 588.073 58.3925C588.966 55.9219 590.056 54.7666 593.003 54.8049C607.826 54.9973 622.653 54.9381 637.478 54.8485C639.917 54.8338 641.226 55.3092 642.2 57.9203C660.289 106.397 678.518 154.82 696.709 203.258C696.991 204.009 697.151 204.805 697.422 205.774C680.867 205.774 664.568 205.774 648.034 205.774C645.542 197.56 643.062 189.388 640.548 181.104C623.935 181.104 607.618 181.039 591.304 181.238C590.095 181.253 588.248 182.955 587.822 184.245C585.494 191.293 583.518 198.457 581.384 205.708C565.404 205.708 549.481 205.708 532.861 205.708C547.959 165.402 562.906 125.499 578.025 85.2437ZM605.886 124.622C603.622 132.274 601.358 139.925 599.053 147.716C609.84 147.716 620.083 147.716 630.625 147.716C625.446 130.882 620.345 114.305 615.244 97.7274C614.911 97.72 614.578 97.7125 614.245 97.7051C611.572 106.434 608.899 115.163 605.886 124.622Z" fill="url(#paint5_linear_37_3)"/>
<path d="M885.219 183.899C885.219 140.761 885.219 98.1232 885.219 55.1902C901.116 55.1902 916.679 55.1902 932.475 55.1902C932.475 105.262 932.475 155.196 932.475 205.519C917.06 205.519 901.512 205.519 885.219 205.519C885.219 198.554 885.219 191.476 885.219 183.899Z" fill="url(#paint6_linear_37_3)"/>
<defs>
<linearGradient id="paint0_linear_37_3" x1="716.007" y1="130.447" x2="855.67" y2="130.447" gradientUnits="userSpaceOnUse">
<stop stop-color="#7A57DB"/>
<stop offset="1" stop-color="white"/>
</linearGradient>
<linearGradient id="paint1_linear_37_3" x1="970.011" y1="130.498" x2="1118.57" y2="130.498" gradientUnits="userSpaceOnUse">
<stop stop-color="#7A57DB"/>
<stop offset="1" stop-color="white"/>
</linearGradient>
<linearGradient id="paint2_linear_37_3" x1="81" y1="130.543" x2="207.845" y2="130.543" gradientUnits="userSpaceOnUse">
<stop stop-color="#7A57DB"/>
<stop offset="1" stop-color="white"/>
</linearGradient>
<linearGradient id="paint3_linear_37_3" x1="228.823" y1="130.536" x2="365.616" y2="130.536" gradientUnits="userSpaceOnUse">
<stop stop-color="#7A57DB"/>
<stop offset="1" stop-color="white"/>
</linearGradient>
<linearGradient id="paint4_linear_37_3" x1="384.865" y1="130.425" x2="521.667" y2="130.425" gradientUnits="userSpaceOnUse">
<stop stop-color="#7A57DB"/>
<stop offset="1" stop-color="white"/>
</linearGradient>
<linearGradient id="paint5_linear_37_3" x1="532.861" y1="130.289" x2="697.422" y2="130.289" gradientUnits="userSpaceOnUse">
<stop stop-color="#7A57DB"/>
<stop offset="1" stop-color="white"/>
</linearGradient>
<linearGradient id="paint6_linear_37_3" x1="885.219" y1="130.355" x2="932.475" y2="130.355" gradientUnits="userSpaceOnUse">
<stop stop-color="#7A57DB"/>
<stop offset="1" stop-color="white"/>
</linearGradient>
</defs>
</svg>
