<svg width="228" height="260" viewBox="0 0 228 260" fill="none" xmlns="http://www.w3.org/2000/svg">
<path d="M21.0762 260C13.6338 260 7.08439 260 0 260C0 173.207 0 86.8503 0 0C74.4051 0 148.818 0 223.74 0C223.74 18.5654 223.74 37.0683 223.74 56.1629C177.487 56.1629 131.462 56.1629 84.8122 56.1629C84.8122 69.4872 84.8122 82.2443 84.8122 95.8798C127.633 95.8798 170.593 95.8798 214.102 95.8798C214.102 114.132 214.102 131.522 214.102 150.07C171.091 150.07 128.176 150.07 84.7307 150.07C84.7307 167.107 84.7307 182.998 84.7307 199.694C132.447 199.694 179.918 199.694 228 199.694C228 219.901 228 239.322 228 260C159.459 260 90.714 260 21.0762 260Z" fill="white"/>
</svg>
