<svg width="48" height="56" viewBox="0 0 48 56" fill="none" xmlns="http://www.w3.org/2000/svg">
<path d="M14.4679 7.23251V10.465H19.9311V8.31002H16.7493V6.15501H19.9311V4H14.4679V7.23251ZM21.0178 6.10397L21.0268 8.21078L22.6117 8.21928L24.1936 8.22495V8.59357H21.0118V10.5501H26.4749V6.24008H23.2931V5.87146H26.4749V4H21.0118L21.0178 6.10397ZM27.5856 6.11248V8.22495H30.7374V8.59357H27.5856V10.5501H33.0188V6.24008H29.8669V5.87146H33.0188V4H27.5856V6.11248ZM6.01501 13.5331C6.02401 13.5841 6.76244 21.3904 7.65697 30.8809C8.55149 40.3715 9.28392 48.138 9.28692 48.1408C9.28992 48.1437 12.5948 49.0142 16.6352 50.0718L23.9805 52L31.3438 50.0718C35.3931 49.0113 38.7101 48.1408 38.7101 48.138C38.7131 48.138 39.4455 40.3771 40.34 30.8951C41.2346 21.413 41.973 13.6068 41.982 13.5473L42 13.4423H6L6.01501 13.5331ZM35.2701 20.5936C35.2701 20.656 35.0569 22.9215 33.8022 36.1947C33.49 39.4981 33.2229 42.2117 33.2079 42.2231C33.1749 42.2514 24.0615 44.6333 23.9895 44.6333C23.9325 44.6333 14.7741 42.2401 14.7531 42.2174C14.7471 42.2117 14.606 40.7599 14.4409 38.9905C14.2728 37.2212 14.1317 35.7183 14.1197 35.6503L14.1047 35.5312H16.3711C17.6198 35.5312 18.6404 35.534 18.6434 35.5369C18.6434 35.5425 18.7154 36.3025 18.8055 37.2268C18.8925 38.1541 18.9706 38.914 18.9766 38.9197C18.9826 38.9253 20.1082 39.2174 21.483 39.5662L23.9775 40.2042L26.4779 39.5662C27.8557 39.2146 28.9874 38.9225 28.9934 38.9197C29.0054 38.9055 29.5037 33.6541 29.5067 33.5095V33.4045H13.8976V33.3336C13.8976 33.2939 13.8106 32.3384 13.7025 31.2127C13.5944 30.087 13.5074 29.1626 13.5074 29.1569C13.5074 29.1541 17.2025 29.1512 21.7172 29.1512H29.927V29.0803C29.927 29.0435 30.014 28.0794 30.1221 26.9452C30.2301 25.8081 30.3172 24.8554 30.3172 24.8299C30.3172 24.7873 29.6538 24.7845 21.7112 24.7788L13.1021 24.7703L12.919 22.8422C12.817 21.7817 12.7239 20.8289 12.7119 20.7212L12.6939 20.5312H35.2701V20.5936Z" fill="white"/>
</svg>
