<svg width="48" height="48" viewBox="0 0 48 48" fill="none" xmlns="http://www.w3.org/2000/svg">
<path d="M31.5 16.5C33.4891 16.5 35.3968 15.7098 36.8033 14.3033C38.2098 12.8968 39 10.9891 39 9C39 7.01088 38.2098 5.10322 36.8033 3.6967C35.3968 2.29018 33.4891 1.5 31.5 1.5H16.5C14.5109 1.5 12.6032 2.29018 11.1967 3.6967C9.79018 5.10322 9 7.01088 9 9C9 10.9891 9.79018 12.8968 11.1967 14.3033C12.6032 15.7098 14.5109 16.5 16.5 16.5C14.5109 16.5 12.6032 17.2902 11.1967 18.6967C9.79018 20.1032 9 22.0109 9 24C9 25.9891 9.79018 27.8968 11.1967 29.3033C12.6032 30.7098 14.5109 31.5 16.5 31.5C15.0166 31.5 13.5666 31.9399 12.3332 32.764C11.0999 33.5881 10.1386 34.7594 9.57091 36.1299C9.00325 37.5003 8.85472 39.0083 9.14411 40.4632C9.4335 41.918 10.1478 43.2544 11.1967 44.3033C12.2456 45.3522 13.582 46.0665 15.0368 46.3559C16.4917 46.6453 17.9997 46.4968 19.3701 45.9291C20.7406 45.3614 21.9119 44.4001 22.736 43.1668C23.5601 41.9334 24 40.4834 24 39V16.5H31.5Z" fill="white"/>
<path d="M31.5 31.5C35.6421 31.5 39 28.1421 39 24C39 19.8579 35.6421 16.5 31.5 16.5C27.3579 16.5 24 19.8579 24 24C24 28.1421 27.3579 31.5 31.5 31.5Z" fill="white"/>
</svg>
