<svg width="48" height="48" viewBox="0 0 48 48" fill="none" xmlns="http://www.w3.org/2000/svg">
<path d="M10.0916 44.1447L6.99684 9.43313H41.0032L37.9051 44.1393L23.9792 48L10.0916 44.1447Z" fill="white"/>
<path d="M24 45.049L35.2528 41.9293L37.9003 12.2713H24V45.049Z" fill="white"/>
<path d="M24 25.1453H18.3666L17.9775 20.7859H24V16.5286H23.9853H13.3249L13.4268 17.6708L14.4731 29.4025H24V25.1453Z" fill="black"/>
<path d="M24 36.2018L23.9813 36.2068L19.24 34.9266L18.9369 31.5312H16.633H14.6633L15.2598 38.2157L23.9804 40.6366L24 40.6312V36.2018Z" fill="black"/>
<path d="M10.1608 0H12.3243V2.1375H14.3033V0H16.4669V6.47287H14.3034V4.30537H12.3244V6.47287H10.1609L10.1608 0Z" fill="white"/>
<path d="M19.3119 2.1465H17.4073V0H23.3811V2.1465H21.4756V6.47287H19.312L19.3119 2.1465Z" fill="white"/>
<path d="M24.3292 0H26.5851L27.9728 2.27438L29.359 0H31.6158V6.47287H29.4612V3.26456L27.9728 5.56603H27.9355L26.446 3.26456V6.47287H24.3292V0Z" fill="white"/>
<path d="M32.6925 0H34.8566V4.33331H37.8991V6.47287H32.6925V0Z" fill="white"/>
<path d="M23.9853 25.1453V29.4025H29.2276L28.7334 34.9238L23.9853 36.2054V40.6345L32.7128 38.2157L32.7769 37.4964L33.7773 26.2885L33.8811 25.1453H32.7339H23.9853Z" fill="black"/>
<path d="M23.9853 16.5286V19.1727V20.7755V20.7859H34.2548H34.2685L34.3539 19.829L34.5479 17.6708L34.6497 16.5286H23.9853Z" fill="black"/>
</svg>
